<svg xmlns="http://www.w3.org/2000/svg" id="Layer_2" width="143.3" height="106" viewBox="0 0 143.3 106"><style>.st0{fill:url(#SVGID_1_)}.st1{fill:url(#SVGID_2_)}.st2{opacity:.2;fill:#1d1d1b}.st3{fill:#90dda0}.st4{opacity:.3}.st4,.st5{fill:#fff}.st6{fill:none;stroke:#f6f6f6;stroke-width:2.5;stroke-miterlimit:10}.st7{fill:#02ae51}.st8{fill:#58bf67}</style><linearGradient id="SVGID_1_" x1="13.514" x2="105.285" y1="26.492" y2="79.476" gradientUnits="userSpaceOnUse"><stop offset="0" stop-color="#e8dff4"/><stop offset="1" stop-color="#d1bfe2"/></linearGradient><path d="M27.7 102.1L1 55.8c-2.1-3.7-.9-8.4 2.8-10.6L80.5 1c3.7-2.1 8.4-.9 10.6 2.8l26.7 46.3c2.1 3.7.9 8.4-2.8 10.6l-76.6 44.2c-3.8 2.2-8.5.9-10.7-2.8z" class="st0"/><linearGradient id="SVGID_2_" x1="3.861" x2="100.014" y1="40.06" y2="40.06" gradientUnits="userSpaceOnUse"><stop offset="0" stop-color="#9b5289"/><stop offset="1" stop-color="#4f008b"/></linearGradient><path d="M100 19.4l-90 52-6.1-10.7 90-51.9z" class="st1"/><path d="M29.9 49.1s-7.2 4.1-4.9 10.4 16.2 43.8 16.2 43.8l6.1-3.5-17.4-50.7z" class="st2"/><path d="M42.6 99.3L28.8 47.7c-1.1-4.1 1.3-8.4 5.5-9.5l85.5-22.9c4.1-1.1 8.4 1.3 9.5 5.5L143 72.4c1.1 4.1-1.3 8.4-5.5 9.5L52 104.8c-4 1.1-8.3-1.4-9.4-5.5z" class="st3"/><path d="M83.2 25.1L34.4 38.2c-4.2 1.1-6.7 5.5-5.6 9.7l13.7 51.3c1.1 4.2 5.5 6.7 9.7 5.6l22.9-6.1 8.1-73.6z" class="st4"/><path d="M119.8 41.8l-10 2.7c-2.3.6-4.6-.7-5.2-3l-1.8-6.7c-.6-2.3.7-4.6 3-5.2l10-2.7c2.3-.6 4.6.7 5.2 3l1.8 6.7c.7 2.2-.7 4.6-3 5.2z" class="st5"/><path d="M53.6 90.3l12-3.3m9.6-2.5l12.1-3.3m9.6-2.5l12-3.3m9.6-2.5l12.1-3.3" class="st6"/><circle cx="49.6" cy="52.3" r="6" class="st7"/><path d="M54.3 44.9c-.7.2-1.4.5-2 1 1.9.8 3.5 2.5 4.1 4.7.6 2.2.1 4.4-1.2 6.1.7.1 1.5 0 2.2-.2 3.2-.9 5.1-4.1 4.2-7.3-.8-3.3-4.1-5.2-7.3-4.3z" class="st8"/></svg>