<svg xmlns="http://www.w3.org/2000/svg" id="Layer_2" width="100.8" height="141.8" viewBox="0 0 100.8 141.8"><style>.st0{fill:#90dda0}.st1{fill:#02ad51}.st2{fill:#e8dff3}.st3{fill:none}.st4{opacity:.3;fill:#fff}.st5{fill:none;stroke:#b2e6bd;stroke-width:2;stroke-miterlimit:10}.st6{fill:#fff}.st7{opacity:.5}.st8{fill:#16c461}.st9{opacity:.2;fill:#1d1d1b}.st10{fill:none;stroke:url(#SVGID_1_);stroke-width:4;stroke-linecap:round;stroke-linejoin:round;stroke-miterlimit:10}</style><path id="path-1_24_" d="M75 56.1L53.4 40s5.2-4.2 12-14.1C72.7 15.3 78.9 0 78.9 0l21.9 16.3s-5 13.2-12.4 23.9C81.7 50.1 75 56.1 75 56.1z" class="st0"/><path d="M25.1 81.9C6.5 69.3 1.8 43.2 1.8 43.2s18.6-11.7 22.6-14c.7 2.4 2.7 8.2 7 12.2" class="st1"/><path d="M6.2 133.2c.7 4.8 5.3 8.6 10.4 8.6h54.6c5.1 0 9.7-3.9 10.4-8.6l6.1-42.5c.7-4.8-2.9-8.6-7.9-8.6H8c-5.1 0-8.6 3.9-7.9 8.6l6.1 42.5z" class="st2"/><path d="M79.3 1.3c-.2-.8-.4-1.3-.4-1.3s-6.2 15.3-13.5 25.9c-6.8 9.9-12 14.1-12 14.1L75 56.1s2.2-2 5.3-5.5c5.4-24.6.6-44.1-1-49.3z" class="st3"/><path d="M80.3 50.6c2.3-2.6 5.2-6.2 8.1-10.4 7.4-10.7 12.4-23.9 12.4-23.9L78.9 0s0 .5.4 1.3c4.5 8.9 21.5 16.4 1 49.3z" class="st4"/><ellipse id="Oval_5_" cx="78.6" cy="29.3" class="st5" rx="5.7" ry="5.7"/><path d="M21.3 101.1V125c0 1.8 2 3.3 4.5 3.3s4.5-1.5 4.5-3.3v-23.8c0-1.8-2-3.3-4.5-3.3-2.5-.1-4.5 1.4-4.5 3.2zm37.2 0V125c0 1.8 2 3.3 4.5 3.3s4.5-1.5 4.5-3.3v-23.8c0-1.8-2-3.3-4.5-3.3-2.5-.1-4.5 1.4-4.5 3.2zm-18.2 0V125c0 1.8 2 3.3 4.5 3.3s4.5-1.5 4.5-3.3v-23.8c0-1.8-2-3.3-4.5-3.3-2.5-.1-4.5 1.4-4.5 3.2z" class="st6"/><g class="st7"><path d="M14.2 71.3c2.9 3.9 6.5 7.6 10.9 10.5l6.3-40.4c-4.2-4.1-6.2-9.8-7-12.2 0 .1-22.8 22.2-10.2 42.1z" class="st3"/><path d="M24.4 29.3c-4 2.3-22.6 14-22.6 14s2.8 15.3 12.4 28.1c-12.6-20 10.2-42.1 10.2-42.1z" class="st8"/></g><path d="M20.9 71.9c-4.7-11-7.1-20.8-7.1-20.8l17-6.5.5-3.2c-4.2-4.1-6.2-9.8-7-12.2-4 2.3-22.6 14-22.6 14S6.4 69.3 25 81.9l.2-1c-1.2-2.2-2.6-5-4.3-9z" class="st3"/><path d="M20.7 73c1.7 3.9 3.1 6.8 4.3 8.9l5.6-36.2-17.4 6.5c.1 0 2.9 9.8 7.5 20.8z" class="st9"/><path id="path-1_29_" d="M28.1 82.1s-2.9-2.6-6.7-15c-3.5-11.4-4.9-21.4-4.9-21.4L44 38.2s.7 8.4 4.2 19.9c3.8 12.5 10.3 24 10.3 24" class="st0"/><ellipse id="Oval_2_" cx="35.6" cy="63.6" class="st5" rx="6.3" ry="6.3"/><path d="M48.1 58.2c-3.6-11.5-4.2-19.9-4.2-19.9S15.6 47.9 26.6 80c.9 1.6 1.5 2.1 1.5 2.1h30.4S52 70.6 48.1 58.2z" class="st3"/><path d="M43.9 38.3l-27.5 7.5s1.4 9.9 4.9 21.4c2.1 6.9 4 10.8 5.2 12.9-10.9-32.2 17.4-41.8 17.4-41.8z" class="st4"/><path d="M35.6 82.1l21-3.5 1.9 3.5z" class="st9"/><linearGradient id="SVGID_1_" x1="41.925" x2="94.331" y1="76.961" y2="76.961" gradientUnits="userSpaceOnUse"><stop offset="0" stop-color="#9b5289"/><stop offset="1" stop-color="#4f008b"/></linearGradient><path d="M43.9 90.2l48.4-26.5" class="st10"/></svg>