<?xml version="1.0" encoding="iso-8859-1"?>
<!-- Generator: Adobe Illustrator 19.0.0, SVG Export Plug-In . SVG Version: 6.00 Build 0)  -->
<svg version="1.1" id="Capa_1" xmlns="http://www.w3.org/2000/svg" xmlns:xlink="http://www.w3.org/1999/xlink" x="0px" y="0px"
	 viewBox="0 0 512 512" style="enable-background:new 0 0 512 512;" xml:space="preserve">
<path style="fill:#CE8045;" d="M266.569,87.198h-21.137c-14.531,0-26.419-11.888-26.419-26.419v-34.36
	C219.012,11.888,230.901,0,245.431,0h21.137c14.531,0,26.419,11.888,26.419,26.419v34.36
	C292.988,75.309,281.099,87.198,266.569,87.198z"/>
<path style="fill:#BC6C37;" d="M253.579,60.779v-34.36c0-12.212,8.399-22.555,19.704-25.545C271.136,0.306,268.887,0,266.569,0
	h-21.137c-14.531,0-26.419,11.888-26.419,26.419v34.36c0,14.531,11.888,26.419,26.419,26.419h21.137
	c2.319,0,4.569-0.306,6.715-0.874C261.978,83.333,253.579,72.99,253.579,60.779z"/>
<path style="fill:#67B758;" d="M292.988,165.342V45.168h-73.975v120.173c0,13.655-5.749,26.679-15.84,35.879l-19.71,17.973
	c-16.062,14.645-25.215,35.376-25.215,57.113v202.773c0,18.181,14.739,32.919,32.919,32.919h129.666
	c18.181,0,32.919-14.739,32.919-32.919V276.307c0-21.736-9.152-42.468-25.215-57.113l-19.71-17.973
	C298.737,192.021,292.988,178.997,292.988,165.342z"/>
<path style="fill:#5AAA4F;" d="M219.012,479.203V406.55c0-80.267,12.37-118.051,22.795-135.64
	c9.318-15.723,14.152-33.69,14.152-51.967V45.168h-36.946v120.173c0,13.655-5.749,26.679-15.84,35.879l-19.711,17.973
	c-16.062,14.645-25.215,35.376-25.215,57.113v202.773c0,18.181,14.739,32.919,32.919,32.919h64.791
	C220.543,512,219.012,479.203,219.012,479.203z"/>
<path style="fill:#4A994A;" d="M158.247,278.585v200.496c0,18.181,14.739,32.919,32.919,32.919h129.666
	c18.181,0,32.919-14.739,32.919-32.919V278.585H158.247z"/>
<path style="fill:#2F7531;" d="M237.795,278.585h-79.548v200.496c0,18.181,14.739,32.919,32.919,32.919h64.791
	c-35.416,0-36.946-32.797-36.946-32.797V406.55C219.012,336.418,228.456,298.72,237.795,278.585z"/>
<rect x="158.246" y="350.921" style="fill:#E9F6FF;" width="195.508" height="111.249"/>
<path style="fill:#CAE7FC;" d="M158.247,350.926v111.247h60.765V406.55c0-21.429,0.882-39.827,2.372-55.624L158.247,350.926
	L158.247,350.926z"/>
<g>
	<rect x="158.246" y="350.921" style="fill:#FFDE55;" width="195.508" height="26.847"/>
	<rect x="158.246" y="435.324" style="fill:#FFDE55;" width="195.508" height="26.847"/>
</g>
<g>
	<path style="fill:#FFCD00;" d="M158.247,377.775h61.344c0.408-9.694,1.018-18.625,1.794-26.849h-63.138V377.775z"/>
	<rect x="158.246" y="435.324" style="fill:#FFCD00;" width="60.765" height="26.847"/>
</g>
<path style="fill:#FFDE55;" d="M292.988,165.342V45.168h-73.975v120.173c0,13.655-5.749,26.679-15.84,35.879l25.075,20.901
	c16.054,13.383,39.377,13.391,55.441,0.022l25.139-20.923C298.737,192.021,292.988,178.997,292.988,165.342z"/>
<path style="fill:#FFCD00;" d="M219.012,165.342c0,13.655-5.749,26.679-15.84,35.879l25.075,20.901
	c7.794,6.497,17.301,9.832,26.859,10.025c0.562-4.365,0.853-8.775,0.853-13.205V45.168h-36.946V165.342z"/>
<path style="fill:#FFEB99;" d="M285.221,66.305H226.78c-11.915,0-21.664-9.749-21.664-21.664l0,0
	c0-11.915,9.749-21.664,21.664-21.664h58.441c11.915,0,21.664,9.749,21.664,21.664l0,0
	C306.885,56.556,297.136,66.305,285.221,66.305z"/>
<path style="fill:#FFDE55;" d="M238.179,44.641L238.179,44.641c0-11.915,9.749-21.664,21.664-21.664h-33.064
	c-11.915,0-21.664,9.749-21.664,21.664l0,0c0,11.915,9.749,21.664,21.664,21.664h33.064
	C247.927,66.305,238.179,56.556,238.179,44.641z"/>
<g>
</g>
<g>
</g>
<g>
</g>
<g>
</g>
<g>
</g>
<g>
</g>
<g>
</g>
<g>
</g>
<g>
</g>
<g>
</g>
<g>
</g>
<g>
</g>
<g>
</g>
<g>
</g>
<g>
</g>
</svg>
