<?xml version="1.0" encoding="UTF-8"?>
<svg width="277px" height="512px" viewBox="0 0 277 512" version="1.1" xmlns="http://www.w3.org/2000/svg" xmlns:xlink="http://www.w3.org/1999/xlink">
    <!-- Generator: Sketch 48.2 (47327) - http://www.bohemiancoding.com/sketch -->
    <title>water</title>
    <desc>Created with Sketch.</desc>
    <defs></defs>
    <g id="Page-1" stroke="none" stroke-width="1" fill="none" fill-rule="evenodd">
        <g id="Group">
            <g id="water">
                <path d="M0,0 L38.831,462.181 C39.818,473.932 49.644,482.968 61.437,482.968 L213.048,482.968 C226.179,482.968 237.119,472.908 238.218,459.823 L276.865,0 L0,0" id="Fill-1" fill="#F4F4F1"></path>
                <path d="M222.545,476.361 L222.545,492.862 C222.545,503.431 213.976,512 203.407,512 L73.46,512 C62.89,512 54.322,503.431 54.322,492.862 L54.322,476.361 L222.545,476.361" id="Fill-2" fill="#9DC8E1"></path>
                <path d="M266.745,120.348 L238.22,459.823 C237.121,472.908 226.179,482.968 213.05,482.968 L61.439,482.968 C49.647,482.968 39.82,473.932 38.833,462.181 L8.967,106.796 L9.537,106.741 C52.326,106.741 52.326,120.308 95.101,120.308 C137.89,120.308 137.89,106.741 180.679,106.741 C223.468,106.741 223.468,120.308 266.243,120.308 L266.745,120.348" id="Fill-3" fill="#C1DFF4"></path>
                <path d="M68.484,117.947 L85.171,482.968 L61.437,482.968 C49.645,482.968 39.819,473.932 38.831,462.181 L0,0 L63.084,0 L68.484,117.947" id="Fill-4" fill="#E5E5E0"></path>
                <path d="M68.484,117.947 L85.171,482.968 L61.437,482.968 C49.645,482.968 39.819,473.932 38.831,462.181 L8.967,106.796 L9.537,106.741 C40.971,106.741 49.314,114.067 68.484,117.947" id="Fill-5" fill="#9DC8E1"></path>
                <path d="M88.508,197.916 C79.901,197.916 72.898,204.919 72.898,213.526 C72.898,222.133 79.901,229.136 88.508,229.136 C97.115,229.136 104.118,222.133 104.118,213.526 C104.118,204.919 97.115,197.916 88.508,197.916 Z M88.508,241.345 C73.168,241.345 60.688,228.866 60.688,213.526 C60.688,198.186 73.168,185.707 88.508,185.707 C103.848,185.707 116.327,198.186 116.327,213.526 C116.327,228.866 103.848,241.345 88.508,241.345 Z" id="Fill-6" fill="#9DC8E1"></path>
                <path d="M177.382,284.083 C183.002,284.083 187.557,288.638 187.557,294.258 C187.557,299.877 183.002,304.432 177.382,304.432 C171.763,304.432 167.207,299.877 167.207,294.258 C167.207,288.638 171.763,284.083 177.382,284.083" id="Fill-7" fill="#9DC8E1"></path>
                <path d="M157.426,154.523 C163.045,154.523 167.601,159.078 167.601,164.697 C167.601,170.317 163.045,174.872 157.426,174.872 C151.806,174.872 147.251,170.317 147.251,164.697 C147.251,159.078 151.806,154.523 157.426,154.523" id="Fill-8" fill="#9DC8E1"></path>
                <path d="M120.403,353.611 C126.022,353.611 130.578,358.167 130.578,363.786 C130.578,369.405 126.022,373.961 120.403,373.961 C114.783,373.961 110.228,369.405 110.228,363.786 C110.228,358.167 114.783,353.611 120.403,353.611" id="Fill-9" fill="#9DC8E1"></path>
            </g>
        </g>
    </g>
</svg>