<?xml version="1.0" encoding="UTF-8"?>
<svg width="512px" height="466px" viewBox="0 0 512 466" version="1.1" xmlns="http://www.w3.org/2000/svg" xmlns:xlink="http://www.w3.org/1999/xlink">
    <!-- Generator: Sketch 48.2 (47327) - http://www.bohemiancoding.com/sketch -->
    <title>money</title>
    <desc>Created with Sketch.</desc>
    <defs>
        <polygon id="path-1" points="0.06 0.545 512 0.545 512 303.09 0.06 303.09"></polygon>
        <path d="M0.221445221,0.328295429 C0.221445221,10.5577726 8.65496503,18.7602865 18.9619114,18.7602865 L18.9619114,0.328295429 L0.221445221,0.328295429 Z" id="path-3"></path>
        <path d="M0.221445221,0.328295429 C0.221445221,10.5577726 8.65496503,18.7602865 18.9619114,18.7602865 L18.9619114,0.328295429 L0.221445221,0.328295429 Z" id="path-5"></path>
        <path d="M0.221445221,0.328295429 C0.221445221,10.5577726 8.65496503,18.7602865 18.9619114,18.7602865 L18.9619114,0.328295429 L0.221445221,0.328295429 Z" id="path-7"></path>
        <path d="M0.454545455,0.673869565 C0.454545455,21.6712174 17.7654545,38.5079565 38.9218182,38.5079565 L38.9218182,0.673869565 L0.454545455,0.673869565 Z" id="path-9"></path>
    </defs>
    <g id="Page-1" stroke="none" stroke-width="1" fill="none" fill-rule="evenodd">
        <g id="money">
            <g id="Group-3">
                <mask id="mask-2" fill="white">
                    <use xlink:href="#path-1"></use>
                </mask>
                <g id="Clip-2"></g>
                <path d="M488.727,303.09 L23.273,303.09 C10.473,303.09 0,292.618 0,279.818 L0,23.818 C0,11.018 10.473,0.545 23.273,0.545 L488.727,0.545 C501.527,0.545 512,11.018 512,23.818 L512,279.818 C512,292.618 501.527,303.09 488.727,303.09" id="Fill-1" fill="#008E49" mask="url(#mask-2)"></path>
            </g>
            <path d="M430.545,210 C403.782,210 379.345,222.8 365.382,243.745 C353.745,237.927 340.945,233.272 325.818,233.272 C285.091,233.272 251.345,263.527 245.527,303.09 L488.727,303.09 C500.364,303.09 509.673,294.945 512,283.309 C507.345,242.581 472.436,210 430.545,210" id="Fill-4" fill="#008547"></path>
            <path d="M442.182,279.818 L69.818,279.818 C69.818,254.218 48.873,233.272 23.273,233.272 L23.273,70.363 C48.873,70.363 69.818,49.418 69.818,23.818 L442.182,23.818 C442.182,49.418 463.127,70.363 488.727,70.363 L488.727,233.272 C463.127,233.272 442.182,254.218 442.182,279.818" id="Fill-5" fill="#009F4E"></path>
            <path d="M430.545,210 C403.782,210 379.345,222.8 365.382,243.745 C353.745,237.927 340.945,233.272 325.818,233.272 C293.236,233.272 265.309,251.89 252.509,279.818 L442.182,279.818 C442.182,254.218 461.964,234.436 487.564,233.272 C472.436,219.309 452.655,210 430.545,210" id="Fill-6" fill="#008E49"></path>
            <path d="M256,47.091 C307.413,47.091 349.091,93.978 349.091,151.818 C349.091,209.657 307.413,256.545 256,256.545 C204.587,256.545 162.909,209.657 162.909,151.818 C162.909,93.978 204.587,47.091 256,47.091" id="Fill-7" fill="#008E49"></path>
            <path d="M116.364,128.545 C129.217,128.545 139.636,138.965 139.636,151.818 C139.636,164.671 129.217,175.09 116.364,175.09 C103.51,175.09 93.091,164.671 93.091,151.818 C93.091,138.965 103.51,128.545 116.364,128.545" id="Fill-8" fill="#008E49"></path>
            <path d="M395.636,128.545 C408.49,128.545 418.909,138.965 418.909,151.818 C418.909,164.671 408.49,175.09 395.636,175.09 C382.783,175.09 372.364,164.671 372.364,151.818 C372.364,138.965 382.783,128.545 395.636,128.545" id="Fill-9" fill="#008E49"></path>
            <path d="M302.545,233.272 C347.532,233.272 384,269.741 384,314.727 C384,359.713 347.532,396.181 302.545,396.181 C257.559,396.181 221.091,359.713 221.091,314.727 C221.091,269.741 257.559,233.272 302.545,233.272" id="Fill-11" fill="#F4B45D"></path>
            <path d="M407.273,210 C452.259,210 488.727,246.468 488.727,291.454 C488.727,336.44 452.259,372.909 407.273,372.909 C362.287,372.909 325.818,336.44 325.818,291.454 C325.818,246.468 362.287,210 407.273,210" id="Fill-12" fill="#EFA14A"></path>
            <path d="M407.455,349.636 C374.873,349.636 349.273,324.036 349.273,291.454 C349.273,258.872 374.873,233.272 407.455,233.272 C440.037,233.272 465.637,258.872 465.637,291.454 C465.637,324.036 440.037,349.636 407.455,349.636 Z M407.455,210 C362.073,210 326,246.072 326,291.454 C326,336.836 362.073,372.909 407.455,372.909 C452.837,372.909 488.909,336.836 488.909,291.454 C488.909,246.072 452.837,210 407.455,210 Z" id="Fill-13" fill="#F4B55C"></path>
            <path d="M407.273,371.745 C452.655,372.909 488.727,335.672 488.727,291.454 L487.564,291.454 C481.745,291.454 477.091,296.109 475.927,301.927 C473.6,318.218 465.455,333.345 453.818,343.818 C444.509,353.127 431.709,358.945 417.745,361.272 C411.927,361.272 407.273,365.927 407.273,371.745" id="Fill-14" fill="#EFA14A"></path>
            <path d="M407.273,211.163 C361.891,210 325.818,247.236 325.818,291.454 L326.982,291.454 C332.8,291.454 337.455,286.8 338.618,280.981 C340.945,264.69 349.091,249.563 360.727,239.09 C370.036,229.781 382.836,223.963 396.8,221.636 C402.618,221.636 407.273,216.981 407.273,211.163" id="Fill-15" fill="#FAD074"></path>
            <path d="M357.236,299.6 C357.236,267.018 382.836,241.418 415.418,241.418 C429.382,241.418 442.182,246.072 452.655,255.381 C441.018,241.418 425.891,233.272 407.273,233.272 C374.691,233.272 349.091,258.872 349.091,291.454 C349.091,310.072 357.236,325.2 370.036,335.672 C361.891,326.363 357.236,313.563 357.236,299.6" id="Fill-16" fill="#E9863A"></path>
            <path d="M442.182,327.527 C441.018,327.527 439.855,327.527 438.691,326.363 C436.364,324.036 436.364,320.545 438.691,318.218 C445.673,311.236 449.164,300.763 449.164,291.454 C449.164,287.963 451.491,285.636 454.982,285.636 C458.473,285.636 460.8,287.963 460.8,291.454 C460.8,304.254 456.145,317.054 448,326.363 C445.673,327.527 443.345,327.527 442.182,327.527" id="Fill-17" fill="#F4B55C"></path>
            <g id="logo-symbol.a29aebd5afa9" transform="translate(379.000000, 263.000000)">
                <polygon id="Fill-1" fill="#E9863A" points="18.5 18.9997016 18.5 57 37 57 37 0 0 0 0 18.9997016"></polygon>
                <path d="M37,0 C37,10.5452104 45.5503143,19 56,19 L56,0 L37,0 Z" id="Fill-2" fill="#E9863A"></path>
                <g id="Group-6" transform="translate(37.000000, 0.000000)">
                    <mask id="mask-4" fill="white">
                        <use xlink:href="#path-3"></use>
                    </mask>
                    <g id="Clip-5"></g>
                    <path d="M0.221445221,0.328295429 C0.221445221,10.5577726 8.65496503,18.7602865 18.9619114,18.7602865 L18.9619114,0.328295429 L0.221445221,0.328295429 Z" id="Fill-4" mask="url(#mask-4)"></path>
                </g>
            </g>
            <path d="M450.327,360.109 C442.182,331.018 421.236,307.745 394.473,297.272 C389.818,270.509 372.364,247.236 350.255,233.272 C336.291,248.4 326.982,268.181 326.982,290.29 C326.982,335.672 363.055,371.745 408.436,371.745 C423.564,372.909 437.527,368.254 450.327,360.109" id="Fill-19" fill="#E9863A"></path>
            <path d="M370.036,335.672 C361.891,325.2 356.073,312.4 356.073,298.436 C356.073,282.145 363.055,267.018 374.691,256.545 C372.364,253.054 370.036,250.727 367.709,248.4 C356.073,258.872 349.091,274 349.091,291.454 C349.091,310.072 357.236,325.2 370.036,335.672" id="Fill-20" fill="#E67637"></path>
            <path d="M397,324.727 C397,331.709 400.800327,336.363 406.500408,336.363 C412.20049,336.363 416,331.709 416,324.727 L416,310 C410.299918,304.181 403.650367,302.491 397,299 L397,324.727 Z" id="Fill-21" fill="#E67637"></path>
            <path d="M450.327,360.109 C448,351.963 445.673,344.981 441.018,338 C431.709,344.981 420.073,349.636 407.273,349.636 C374.691,349.636 349.091,324.036 349.091,291.454 C349.091,274 356.073,258.872 367.709,248.4 C361.891,242.581 356.073,237.927 349.091,234.436 C335.127,249.563 325.818,269.345 325.818,291.454 C325.818,336.836 361.891,372.909 407.273,372.909 C423.564,372.909 437.527,368.254 450.327,360.109" id="Fill-22" fill="#EFA14A"></path>
            <path d="M446.836,349.636 C438.691,355.454 428.218,358.945 417.745,361.272 C411.927,362.436 407.273,367.09 407.273,372.909 C423.564,372.909 437.527,368.254 450.327,360.109 C449.164,356.618 448,353.127 446.836,349.636" id="Fill-23" fill="#E9863A"></path>
            <path d="M349.091,234.436 C335.127,249.563 325.818,269.345 325.818,291.454 L326.982,291.454 C332.8,291.454 337.455,286.8 338.618,280.981 C340.945,264.69 349.091,250.727 359.564,240.254 C356.073,239.09 352.582,236.763 349.091,234.436" id="Fill-24" fill="#F4B55C"></path>
            <path d="M302.454,233 C347.441,233 383.909,269.469 383.909,314.455 C383.909,359.441 347.441,395.909 302.454,395.909 C257.468,395.909 221,359.441 221,314.455 C221,269.469 257.468,233 302.454,233" id="Fill-25" fill="#EFA14A"></path>
            <path d="M290.909,372.909 C290.909,381.054 292.073,388.036 294.4,396.181 C296.727,396.181 300.218,396.181 302.545,396.181 C347.927,396.181 384,360.109 384,314.727 C384,306.581 382.836,299.6 380.509,291.454 C378.182,291.454 374.691,291.454 372.364,291.454 C326.982,291.454 290.909,327.527 290.909,372.909" id="Fill-26" fill="#E9863A"></path>
            <path d="M302.545,372.909 C269.964,372.909 244.364,347.309 244.364,314.727 C244.364,282.145 269.964,256.545 302.545,256.545 C335.127,256.545 360.727,282.145 360.727,314.727 C360.727,347.309 335.127,372.909 302.545,372.909 Z M302.545,233.272 C257.164,233.272 221.091,269.345 221.091,314.727 C221.091,360.109 257.164,396.181 302.545,396.181 C347.927,396.181 384,360.109 384,314.727 C384,269.345 347.927,233.272 302.545,233.272 Z" id="Fill-27" fill="#F4B55C"></path>
            <path d="M302.545,395.018 C347.927,396.181 384,358.945 384,314.727 L382.836,314.727 C377.018,314.727 372.364,319.381 371.2,325.2 C368.873,341.49 360.727,356.618 349.091,367.09 C339.782,376.4 326.982,382.218 313.018,384.545 C307.2,384.545 302.545,389.2 302.545,395.018" id="Fill-28" fill="#EFA14A"></path>
            <path d="M302.545,234.436 C257.164,233.272 221.091,270.509 221.091,314.727 L222.255,314.727 C228.073,314.727 232.727,310.072 233.891,304.254 C236.218,287.963 244.364,272.836 256,262.363 C265.309,253.054 278.109,247.236 292.073,244.909 C297.891,244.909 302.545,240.254 302.545,234.436" id="Fill-29" fill="#FAD074"></path>
            <path d="M252.509,322.872 C252.509,290.29 278.109,264.69 310.691,264.69 C324.655,264.69 337.455,269.345 347.927,278.654 C336.291,264.69 321.164,256.545 302.545,256.545 C269.964,256.545 244.364,282.145 244.364,314.727 C244.364,333.345 252.509,348.472 265.309,358.945 C257.164,349.636 252.509,336.836 252.509,322.872" id="Fill-30" fill="#E9863A"></path>
            <path d="M337.455,350.8 C336.291,350.8 335.127,350.8 333.964,349.636 C331.636,347.309 331.636,343.818 333.964,341.49 C340.945,334.509 344.436,324.036 344.436,314.727 C344.436,311.236 346.764,308.909 350.255,308.909 C353.745,308.909 356.073,311.236 356.073,314.727 C356.073,327.527 351.418,340.327 343.273,349.636 C340.945,350.8 338.618,350.8 337.455,350.8" id="Fill-31" fill="#F4B55C"></path>
            <g id="logo-symbol.a29aebd5afa9" transform="translate(275.000000, 286.000000)">
                <polygon id="Fill-1" fill="#E9863A" points="18.5 18.9997016 18.5 57 37 57 37 0 0 0 0 18.9997016"></polygon>
                <path d="M37,0 C37,10.5452104 45.5503143,19 56,19 L56,0 L37,0 Z" id="Fill-2" fill="#E9863A"></path>
                <g id="Group-6" transform="translate(37.000000, 0.000000)">
                    <mask id="mask-6" fill="white">
                        <use xlink:href="#path-5"></use>
                    </mask>
                    <g id="Clip-5"></g>
                    <path d="M0.221445221,0.328295429 C0.221445221,10.5577726 8.65496503,18.7602865 18.9619114,18.7602865 L18.9619114,0.328295429 L0.221445221,0.328295429 Z" id="Fill-4" mask="url(#mask-6)"></path>
                </g>
            </g>
            <path d="M356.073,292.618 C358.4,299.6 360.727,306.581 360.727,314.727 C360.727,347.309 335.127,372.909 302.545,372.909 C299.055,372.909 294.4,372.909 290.909,371.745 L290.909,372.909 C290.909,381.054 292.073,388.036 294.4,396.181 C296.727,396.181 300.218,396.181 302.545,396.181 C347.927,396.181 384,360.109 384,314.727 C384,306.581 382.836,299.6 380.509,291.454 C378.182,291.454 374.691,291.454 372.364,291.454 C366.545,291.454 361.891,291.454 356.073,292.618" id="Fill-33" fill="#EFA14A"></path>
            <path d="M360.727,303.09 C405.713,303.09 442.182,339.559 442.182,384.545 C442.182,429.531 405.713,466 360.727,466 C315.741,466 279.273,429.531 279.273,384.545 C279.273,339.559 315.741,303.09 360.727,303.09" id="Fill-34" fill="#EFA14A"></path>
            <path d="M360.727,442.727 C328.145,442.727 302.545,417.127 302.545,384.545 C302.545,351.963 328.145,326.363 360.727,326.363 C393.309,326.363 418.909,351.963 418.909,384.545 C418.909,417.127 393.309,442.727 360.727,442.727 Z M360.727,303.09 C315.345,303.09 279.273,339.163 279.273,384.545 C279.273,429.927 315.345,466 360.727,466 C406.109,466 442.182,429.927 442.182,384.545 C442.182,339.163 406.109,303.09 360.727,303.09 Z" id="Fill-35" fill="#F4B55C"></path>
            <path d="M360.727,464.836 C406.109,466 442.182,428.763 442.182,384.545 L441.018,384.545 C435.2,384.545 430.545,389.2 429.382,395.018 C427.055,411.309 418.909,426.436 407.273,436.909 C397.964,446.218 385.164,452.036 371.2,454.363 C365.382,454.363 360.727,459.018 360.727,464.836" id="Fill-36" fill="#EFA14A"></path>
            <path d="M360.727,304.254 C315.345,303.09 279.273,340.327 279.273,384.545 L280.436,384.545 C286.255,384.545 290.909,379.89 292.073,374.072 C294.4,357.781 302.545,342.654 314.182,332.181 C323.491,322.872 336.291,317.054 350.255,314.727 C356.073,314.727 360.727,310.072 360.727,304.254" id="Fill-37" fill="#FAD074"></path>
            <path d="M310.691,392.69 C310.691,360.109 336.291,334.509 368.873,334.509 C382.836,334.509 395.636,339.163 406.109,348.472 C394.473,334.509 379.345,326.363 360.727,326.363 C328.145,326.363 302.545,351.963 302.545,384.545 C302.545,403.163 310.691,418.29 323.491,428.763 C315.345,419.454 310.691,406.654 310.691,392.69" id="Fill-38" fill="#E9863A"></path>
            <path d="M395.636,420.618 C394.473,420.618 393.309,420.618 392.145,419.454 C389.818,417.127 389.818,413.636 392.145,411.309 C399.127,404.327 402.618,393.854 402.618,384.545 C402.618,381.054 404.945,378.727 408.436,378.727 C411.927,378.727 414.255,381.054 414.255,384.545 C414.255,397.345 409.6,410.145 401.455,419.454 C399.127,420.618 396.8,420.618 395.636,420.618" id="Fill-39" fill="#F4B55C"></path>
            <g id="logo-symbol.a29aebd5afa9" transform="translate(337.000000, 361.000000)">
                <polygon id="Fill-1" fill="#E9863A" points="18.5 18.9997016 18.5 57 37 57 37 0 0 0 0 18.9997016"></polygon>
                <path d="M37,0 C37,10.5452104 45.5503143,19 56,19 L56,0 L37,0 Z" id="Fill-2" fill="#E9863A"></path>
                <g id="Group-6" transform="translate(37.000000, 0.000000)">
                    <mask id="mask-8" fill="white">
                        <use xlink:href="#path-7"></use>
                    </mask>
                    <g id="Clip-5"></g>
                    <path d="M0.221445221,0.328295429 C0.221445221,10.5577726 8.65496503,18.7602865 18.9619114,18.7602865 L18.9619114,0.328295429 L0.221445221,0.328295429 Z" id="Fill-4" mask="url(#mask-8)"></path>
                </g>
            </g>
            <g id="logo-symbol.a29aebd5afa9" transform="translate(203.000000, 100.000000)">
                <polygon id="Fill-1" fill="#FFFFFF" points="38 39.3327313 38 116 76 116 76 1 0 1 0 39.3327313"></polygon>
                <path d="M76,1 C76,22.0904208 93.1006286,39 114,39 L114,1 L76,1 Z" id="Fill-2" fill="#009D4E"></path>
                <g id="Group-6" transform="translate(75.000000, 0.000000)">
                    <mask id="mask-10" fill="white">
                        <use xlink:href="#path-9"></use>
                    </mask>
                    <g id="Clip-5"></g>
                    <path d="M0.454545455,0.673869565 C0.454545455,21.6712174 17.7654545,38.5079565 38.9218182,38.5079565 L38.9218182,0.673869565 L0.454545455,0.673869565 Z" id="Fill-4" mask="url(#mask-10)"></path>
                </g>
            </g>
        </g>
    </g>
</svg>