<svg xmlns="http://www.w3.org/2000/svg" id="Layer_2" width="139.3" height="131.2" viewBox="0 0 139.3 131.2"><style>.st0{fill:url(#SVGID_1_)}.st1{fill:none;stroke:#f6f6f6;stroke-width:2.5;stroke-miterlimit:10}.st2{fill:url(#SVGID_2_)}.st3{opacity:.2}.st4{fill:#1d1d1b}.st5{fill:url(#SVGID_3_)}.st6{opacity:.2;fill:#1d1d1b}.st7{fill:none}.st8{fill:#90dda0}.st10,.st9{fill:#fff}.st10{opacity:.3}</style><linearGradient id="SVGID_1_" x1="42.614" x2="131.013" y1="35.929" y2="35.929" gradientUnits="userSpaceOnUse"><stop offset="0" stop-color="#9b5289"/><stop offset="1" stop-color="#4f008b"/></linearGradient><path d="M109.8 71.4l-65.3-35c-1.7-.9-2.4-3.1-1.5-4.8L59 1.9C59.9.2 62.1-.5 63.8.4l65.3 35c1.7.9 2.4 3.1 1.5 4.8L114.7 70c-1 1.7-3.1 2.4-4.9 1.4z" class="st0"/><path d="M54.1 31.5l9.7-17.9m-4.1 20.6l11.1-20.6m-5.6 23.5l4.5-8.3m40.7 12.9l4.5-8.3m-10.3 5.2l4.5-8.3" class="st1"/><linearGradient id="SVGID_2_" x1="151.07" x2="215.526" y1="-27.369" y2="9.845" gradientTransform="matrix(.2531 .9533 -.6617 1.3532 57.54 -84.17)" gradientUnits="userSpaceOnUse"><stop offset="0" stop-color="#e8dff4"/><stop offset="1" stop-color="#d1bfe2"/></linearGradient><path d="M80.3 109.1l19.4-71.5c.5-1.9 2.5-3 4.4-2.5l32.6 8.8c1.9.5 3 2.5 2.5 4.4l-19.4 71.5c-.5 1.9-2.5 3-4.4 2.5l-32.6-8.8c-1.9-.5-3-2.5-2.5-4.4z" class="st2"/><path d="M106.6 45.8l19.7 5.4m-20.9.7l22.5 6.2m-24.2-.2l9.1 2.5m-3.4 42.6l9.1 2.5m-7.4-8.8l9.1 2.5" class="st1"/><g class="st3"><path d="M101.1 34.3c-2.1-.6-4.2.7-4.8 2.7l-19.2 70.9c-.6 2.1.7 4.2 2.7 4.8l30.9 8.4 12.5-80.8-22.1-6z" class="st4"/></g><linearGradient id="SVGID_3_" x1="31.68" x2="96.136" y1="34.611" y2="71.825" gradientTransform="matrix(.8544 .4928 .4928 1.4234 -44.116 -56.837)" gradientUnits="userSpaceOnUse"><stop offset="0" stop-color="#e8dff4"/><stop offset="1" stop-color="#d1bfe2"/></linearGradient><path d="M37.5 92.7L.5 28.5c-1-1.7-.4-3.9 1.3-4.9L31 6.8c1.7-1 3.9-.4 4.9 1.3L73 72.3c1 1.7.4 3.9-1.3 4.9L42.4 94c-1.7 1-3.9.4-4.9-1.3z" class="st5"/><path d="M11.2 29.4l11.4-6.5m-8 11.7l15.9-9M17.7 40l10.2-5.8" class="st1"/><path d="M31.6 119.4L44.5 18.5c.2-1.2 1.3-2.1 2.5-1.9l73 9.3c1.2.2 2.1 1.3 1.9 2.5L109 129.3c-.2 1.2-1.3 2.1-2.5 1.9l-73-9.3c-1.2-.2-2.1-1.3-1.9-2.5z" class="st6"/><path d="M40 19.9c.1-.9.7-1.7 1.5-2L36 8.4c-1-1.9-3.4-2.5-5.3-1.4L2.1 23.5C.2 24.6-.4 27 .7 28.8l33.2 57.6L40 19.9z" class="st7"/><path d="M40 19.9l-6.2 66.5 3.5 6c1.1 1.9 3.5 2.5 5.3 1.4l28.7-16.5c1.9-1.1 2.5-3.5 1.4-5.3L41.5 17.9c-.8.3-1.4 1.1-1.5 2z" class="st6"/><g><path d="M31.6 119.4L44.5 18.5c.2-1.2 1.3-2.1 2.5-1.9l73 9.3c1.2.2 2.1 1.3 1.9 2.5L109 129.3c-.2 1.2-1.3 2.1-2.5 1.9l-73-9.3c-1.2-.2-2.1-1.3-1.9-2.5z" class="st8"/><path d="M70.4 46.2l-16.2-2.1c-.5-.1-.8-.5-.7-.9l1.6-12.4c.1-.5.5-.8.9-.7l16.2 2.1c.5.1.8.5.7.9l-1.6 12.4c-.1.4-.5.8-.9.7z" class="st9"/><path d="M78.2 36.8l18.6 2.4m-10 4.6l-9.3-1.2M51.2 61.1l32.4 4.2m-33.5 3.8l19.8 2.6M48.1 87l27.2 3.5M47.1 95L59 96.5m47.2-50.2l-14.8-1.9M63.5 97.1l19.4 2.5" class="st1"/></g><g><path d="M88.2 21.9l-41.1-5.2c-1.3-.2-2.5.8-2.7 2.1l-12.1 94.9 55.9-91.8z" class="st10"/></g></svg>